<?xml version="1.0" encoding="UTF-8"?>
<svg version="1.1" xmlns="http://www.w3.org/2000/svg" width="100" height="100">
<path d="M0 0 C27.06 0 54.12 0 82 0 C82 8.58 82 17.16 82 26 C54.94 26 27.88 26 0 26 C0 17.42 0 8.84 0 0 Z M7 7 C7 10.96 7 14.92 7 19 C29.44 19 51.88 19 75 19 C75 15.04 75 11.08 75 7 C52.56 7 30.12 7 7 7 Z " fill="#F9AF04" transform="translate(9,65)"/>
<path d="M0 0 C5.17818765 2.84228597 8.19926939 6.78476878 10.75 12.0625 C10.75 12.7225 10.75 13.3825 10.75 14.0625 C12.049375 14.1553125 12.049375 14.1553125 13.375 14.25 C17.63584403 15.27575875 19.66887629 16.98137629 22.75 20.0625 C25.03953131 24.01714498 25.2168364 27.5497481 24.75 32.0625 C22.52027447 37.5439086 20.38140512 39.76281542 15.09619141 42.25292969 C10.84644659 43.71933487 6.64332303 43.63213922 2.1875 43.59375 C1.1967749 43.5975769 0.2060498 43.60140381 -0.81469727 43.60534668 C-2.89893618 43.60805562 -4.9832097 43.6007662 -7.06738281 43.58398438 C-10.24101212 43.56256067 -13.41237784 43.58382141 -16.5859375 43.609375 C-18.61979662 43.60673154 -20.65365434 43.6016062 -22.6875 43.59375 C-23.62730713 43.60184692 -24.56711426 43.60994385 -25.53540039 43.61828613 C-31.5052881 43.53413884 -36.33751397 42.63397416 -41.25 39.0625 C-44.03694093 35.8966915 -45.15186358 32.74945496 -45.75 28.5625 C-45.25805977 25.11891836 -44.32387639 22.94066309 -42.4609375 20.02734375 C-40.54371253 16.91649163 -39.05882136 13.59653592 -37.49609375 10.296875 C-35.82387195 7.29840833 -34.57214485 5.44277404 -31.19921875 4.47265625 C-30.45285156 4.35792969 -29.70648438 4.24320313 -28.9375 4.125 C-24.62118457 3.29682891 -21.81027256 1.69032022 -18.25 -0.9375 C-11.99654407 -3.02198531 -6.03065398 -2.65494751 0 0 Z M-21.8125 10.25 C-24.8361421 12.49834926 -26.57097662 12.3133425 -30.25 12.0625 C-30.58 12.3925 -30.91 12.7225 -31.25 13.0625 C-31.1675 14.17625 -31.085 15.29 -31 16.4375 C-31.0825 17.63375 -31.165 18.83 -31.25 20.0625 C-33.625 21.625 -33.625 21.625 -36.25 23.0625 C-37.908596 25.87146063 -37.908596 25.87146063 -38.25 29.0625 C-37.06065344 32.14080876 -36.10173196 33.59655728 -33.1953125 35.18652344 C-29.15518903 36.38811188 -25.38088646 36.34849404 -21.1875 36.328125 C-20.31859131 36.33003845 -19.44968262 36.3319519 -18.55444336 36.33392334 C-16.72216501 36.33528089 -14.88987691 36.33161455 -13.05761719 36.32324219 C-10.259545 36.31253652 -7.46211481 36.32315202 -4.6640625 36.3359375 C-2.88020692 36.33461583 -1.09635174 36.33205328 0.6875 36.328125 C1.52095947 36.33217346 2.35441895 36.33622192 3.21313477 36.34039307 C7.4726964 36.30615468 10.92075706 36.15729972 14.75 34.0625 C16.82976712 31.90178533 16.82976712 31.90178533 17.75 29.0625 C17.26237739 25.84933477 17.26237739 25.84933477 15.75 23.0625 C12.29337669 20.75808446 10.80142119 20.80389865 6.75 21.0625 C5.76 21.5575 5.76 21.5575 4.75 22.0625 C4.70875 20.886875 4.6675 19.71125 4.625 18.5 C3.98410397 13.41796532 1.62842738 10.31102038 -2.25 7.0625 C-9.55006663 3.70446935 -15.7337602 5.06083188 -21.8125 10.25 Z " fill="#FAB004" transform="translate(60.25,13.9375)"/>
<path d="M0 0 C14.85 0 29.7 0 45 0 C45 2.31 45 4.62 45 7 C30.15 7 15.3 7 0 7 C0 4.69 0 2.38 0 0 Z " fill="#FAAF04" transform="translate(34,75)"/>
<path d="M0 0 C1.98 0 3.96 0 6 0 C6.625 1.8125 6.625 1.8125 7 4 C6.01 5.485 6.01 5.485 5 7 C3.35 6.67 1.7 6.34 0 6 C-1.125 2.25 -1.125 2.25 0 0 Z " fill="#FAB304" transform="translate(22,75)"/>
</svg>
