<?xml version="1.0" encoding="UTF-8"?>
<svg version="1.1" xmlns="http://www.w3.org/2000/svg" width="64" height="64">
<path d="M0 0 C17.16 0 34.32 0 52 0 C52.020625 6.8475 52.04125 13.695 52.0625 20.75 C52.071604 22.9062793 52.08070801 25.06255859 52.09008789 27.28417969 C52.09300901 28.99674416 52.09555711 30.70930932 52.09765625 32.421875 C52.10277222 33.3082666 52.10788818 34.1946582 52.11315918 35.10791016 C52.11334045 36.38625732 52.11334045 36.38625732 52.11352539 37.69042969 C52.115746 38.42767273 52.11796661 39.16491577 52.12025452 39.92449951 C52 42 52 42 51.43040466 44.14434814 C50.77381163 46.079073 50.77381163 46.079073 52 48 C52 51.96 52 55.92 52 60 C34.84 60 17.68 60 0 60 C0 48 0 48 1 44 C0.67 43.34 0.34 42.68 0 42 C-0.08902493 40.64154807 -0.11760132 39.27884026 -0.11352539 37.91748047 C-0.11340454 37.06500732 -0.11328369 36.21253418 -0.11315918 35.33422852 C-0.10804321 34.43760498 -0.10292725 33.54098145 -0.09765625 32.6171875 C-0.09664917 31.79355713 -0.09564209 30.96992676 -0.09460449 30.12133789 C-0.08936519 27.03921114 -0.07540396 23.9571042 -0.0625 20.875 C-0.041875 13.98625 -0.02125 7.0975 0 0 Z M2 3 C1.88657246 5.61950885 1.83581955 8.21164264 1.83203125 10.83203125 C1.82870285 11.62018723 1.82537445 12.4083432 1.82194519 13.22038269 C1.81687156 14.89243993 1.814537 16.56450734 1.81469727 18.23657227 C1.81251804 20.7913496 1.79438743 23.3456902 1.77539062 25.90039062 C1.77245532 27.52343602 1.77047144 29.14648347 1.76953125 30.76953125 C1.76234573 31.53320511 1.75516022 32.29687897 1.74775696 33.08369446 C1.7642897 36.93777054 2.00083213 39.68260138 4 43 C3.9765625 45.359375 3.9765625 45.359375 3.625 47.75 C3.51414062 48.54921875 3.40328125 49.3484375 3.2890625 50.171875 C3.19367187 50.77515625 3.09828125 51.3784375 3 52 C5.86855713 51.91563067 7.55682315 51.41307819 9.66796875 49.4453125 C12.87461482 46.16676411 12.87461482 46.16676411 14 42 C13.21625 41.21625 12.4325 40.4325 11.625 39.625 C7.32220036 35.32220036 6.67524836 32.32514713 6.5625 26.25 C6.66880228 19.8585754 7.47465282 15.61817482 12 11 C17.40535889 6.39969456 22.63389198 6.33217775 29.61328125 6.5546875 C36.08664295 7.40585617 39.36279762 10.0762872 43.5 14.9375 C46.2220015 20.50356585 45.78739948 27.01161976 45 33 C43.20976045 38.15684047 40.06032768 41.83424194 35.11328125 44.32421875 C30.86129892 45.68390996 26.43607865 45.83956316 22 46 C21.34 47.98 20.68 49.96 20 52 C26.93 52 33.86 52 41 52 C41 52.66 41 53.32 41 54 C40.00818726 53.99214478 40.00818726 53.99214478 38.99633789 53.98413086 C36.01840149 53.96342344 33.04048018 53.95035988 30.0625 53.9375 C29.02158203 53.92912109 27.98066406 53.92074219 26.90820312 53.91210938 C25.91884766 53.90888672 24.92949219 53.90566406 23.91015625 53.90234375 C22.53549194 53.89448853 22.53549194 53.89448853 21.13305664 53.88647461 C19.01636977 53.76078789 19.01636977 53.76078789 18 55 C16.33570949 55.09823937 14.66718069 55.12973631 13 55.125 C11.63875 55.12886719 11.63875 55.12886719 10.25 55.1328125 C8 55 8 55 7 54 C5.33382885 53.95936168 3.66611905 53.957279 2 54 C2.33 55.32 2.66 56.64 3 58 C9.53278786 58.02527002 16.06556321 58.04283292 22.59838867 58.05493164 C24.82267732 58.05997317 27.04696263 58.06680623 29.27124023 58.07543945 C32.46078309 58.08751298 35.65028229 58.09322996 38.83984375 58.09765625 C39.84087631 58.10281754 40.84190887 58.10797882 41.87327576 58.11329651 C43.25459435 58.11340981 43.25459435 58.11340981 44.66381836 58.11352539 C45.88626503 58.11685631 45.88626503 58.11685631 47.13340759 58.12025452 C49.01477856 58.20528245 49.01477856 58.20528245 50 57 C49.61143385 53.1790995 49.10721562 49.50683745 48.3125 45.75 C48 43 48 43 48.96606445 41.3425293 C50.48940554 37.89118155 50.26532754 34.47430943 50.23046875 30.76953125 C50.23001053 29.9785051 50.22955231 29.18747894 50.2290802 28.3724823 C50.22606587 26.70574436 50.21820412 25.03900904 50.20581055 23.37231445 C50.18749113 20.81126015 50.18530139 18.25056627 50.18554688 15.68945312 C50.1806338 14.07030935 50.1748064 12.45116804 50.16796875 10.83203125 C50.16685593 10.0622847 50.1657431 9.29253815 50.16459656 8.49946594 C50.45824125 4.95499815 50.45824125 4.95499815 49 2 C47.56259647 1.90186013 46.12043673 1.8720172 44.6796875 1.87060547 C43.76203613 1.86745331 42.84438477 1.86430115 41.89892578 1.86105347 C40.40208252 1.86408981 40.40208252 1.86408981 38.875 1.8671875 C37.34915283 1.86575241 37.34915283 1.86575241 35.79248047 1.86428833 C33.63704364 1.86360639 31.48160478 1.86546165 29.32617188 1.86962891 C26.01427629 1.87497695 22.70251633 1.86968437 19.390625 1.86328125 C17.30208303 1.86394203 15.21354115 1.86522319 13.125 1.8671875 C12.12710449 1.86516327 11.12920898 1.86313904 10.10107422 1.86105347 C9.18342285 1.86420563 8.26577148 1.86735779 7.3203125 1.87060547 C6.50836426 1.87140106 5.69641602 1.87219666 4.85986328 1.87301636 C2.98454247 1.79635811 2.98454247 1.79635811 2 3 Z M11.6875 15.5625 C8.36028996 20.36847006 8.37438145 25.3437227 9 31 C10.27984176 34.63395484 11.93693661 37.32082061 15.25 39.4375 C15.8275 39.623125 16.405 39.80875 17 40 C17.391875 39.34 17.78375 38.68 18.1875 38 C20 36 20 36 22.6875 35.75 C23.450625 35.8325 24.21375 35.915 25 36 C24.67 38.31 24.34 40.62 24 43 C29.86737883 43.4789697 33.42259463 42.52108105 38 39 C42.62230483 34.01277637 43.30677369 30.09353015 43.2109375 23.5 C42.78776241 18.48459158 40.68154014 15.41113714 37 12.1875 C28.40619489 5.92118378 18.50874557 8.00382248 11.6875 15.5625 Z M20 40 C18.4911599 41.76330719 16.9931702 43.53590397 15.5 45.3125 C14.6646875 46.29863281 13.829375 47.28476562 12.96875 48.30078125 C10.70535826 50.84714288 10.70535826 50.84714288 11 54 C13.41329646 53.87718878 13.41329646 53.87718878 16 53 C17.72127228 50.83210753 17.72127228 50.83210753 18.875 48.125 C19.30554687 47.24070312 19.73609375 46.35640625 20.1796875 45.4453125 C21.30356196 42.90813345 21.30356196 42.90813345 20 40 Z " fill="#FAB004" transform="translate(6,2)"/>
<path d="M0 0 C2.5 1.5 2.5 1.5 4 4 C4.791013 8.02098277 4.62153384 10.96411027 2.5 14.5 C-1.03588973 16.62153384 -3.97901723 16.791013 -8 16 C-10.5 14.5 -10.5 14.5 -12 12 C-12.791013 7.97901723 -12.62153384 5.03588973 -10.5 1.5 C-6.96411027 -0.62153384 -4.02098277 -0.791013 0 0 Z M-9 5 C-9.33333333 8 -9.33333333 8 -9 11 C-7.11499729 13.31563087 -7.11499729 13.31563087 -4 13.25 C-0.88500271 13.31563087 -0.88500271 13.31563087 1 11 C1.33333333 8 1.33333333 8 1 5 C-0.88500271 2.68436913 -0.88500271 2.68436913 -4 2.75 C-7.11499729 2.68436913 -7.11499729 2.68436913 -9 5 Z " fill="#FAAE04" transform="translate(36,20)"/>
<path d="M0 0 C3.3 0 6.6 0 10 0 C10 0.99 10 1.98 10 3 C6.37 3 2.74 3 -1 3 C-0.67 2.01 -0.34 1.02 0 0 Z " fill="#FAAF04" transform="translate(27,14)"/>
<path d="M0 0 C0.99 0.33 1.98 0.66 3 1 C2.34 2.32 1.68 3.64 1 5 C0.01 4.67 -0.98 4.34 -2 4 C-1.34 2.68 -0.68 1.36 0 0 Z " fill="#FAAF03" transform="translate(23,34)"/>
<path d="M0 0 C1.32 0 2.64 0 4 0 C4 1.32 4 2.64 4 4 C2.68 4 1.36 4 0 4 C0 2.68 0 1.36 0 0 Z " fill="#FAAF04" transform="translate(49,53)"/>
<path d="M0 0 C1.32 0 2.64 0 4 0 C4 1.32 4 2.64 4 4 C2.68 4 1.36 4 0 4 C0 2.68 0 1.36 0 0 Z " fill="#FAAF04" transform="translate(30,26)"/>
<path d="M0 0 C1.98 0.99 1.98 0.99 4 2 C4 2.99 4 3.98 4 5 C2.68 4.67 1.36 4.34 0 4 C0 2.68 0 1.36 0 0 Z " fill="#FAB103" transform="translate(39,16)"/>
<path d="M0 0 C1.32 0 2.64 0 4 0 C4 1.32 4 2.64 4 4 C2.68 4 1.36 4 0 4 C0 2.68 0 1.36 0 0 Z " fill="#FAAF04" transform="translate(49,7)"/>
<path d="M0 0 C1.32 0 2.64 0 4 0 C4 1.32 4 2.64 4 4 C2.68 4 1.36 4 0 4 C0 2.68 0 1.36 0 0 Z " fill="#FAAF04" transform="translate(11,7)"/>
<path d="M0 0 C2.475 0.495 2.475 0.495 5 1 C4.67 1.99 4.34 2.98 4 4 C2.68 3.34 1.36 2.68 0 2 C0 1.34 0 0.68 0 0 Z " fill="#FAB603" transform="translate(18,22)"/>
<path d="M0 0 C0.99 0 1.98 0 3 0 C3 0.99 3 1.98 3 3 C1.68 3.33 0.36 3.66 -1 4 C-0.67 2.68 -0.34 1.36 0 0 Z " fill="#F9AD04" transform="translate(20,31)"/>
<path d="M0 0 C1.32 0 2.64 0 4 0 C4 0.99 4 1.98 4 3 C2.68 3 1.36 3 0 3 C0 2.01 0 1.02 0 0 Z " fill="#FAAF04" transform="translate(18,27)"/>
</svg>
